<?xml version="1.0" encoding="UTF-8"?>
<svg width="44px" height="44px" viewBox="0 0 44 44" version="1.1" xmlns="http://www.w3.org/2000/svg" xmlns:xlink="http://www.w3.org/1999/xlink">
    <!-- Generator: Sketch 47.1 (45422) - http://www.bohemiancoding.com/sketch -->
    <title>IMDb</title>
    <desc>Created with Sketch.</desc>
    <defs></defs>
    <g id="Page-1" stroke="none" stroke-width="1" fill="none" fill-rule="evenodd">
        <g id="IMDb">
            <rect id="background" fill="#E4B821" x="4" y="4" width="36" height="36" rx="3"></rect>
            <g transform="translate(8.000000, 16.000000)" fill="#000000">
                <path d="M22,0 L24.9582724,0 L24.9582724,3.53692558 C25.402127,3.02254953 26.0467409,2.76536151 26.8921142,2.76536151 C28.1601742,2.76536151 29,3.32713641 29,4.43318745 C29,5.5392385 29,7.86356132 29,9.01405363 C29,10.1645459 28.2492546,11 26.8921142,11 C25.987354,11 25.3427401,10.7371399 24.9582724,10.2114196 C24.9582724,10.5511158 24.8751899,10.7455094 24.709025,10.7946006 L22,10.7946006 L22,0 Z M24.9706228,8.8148485 C24.9706228,9.76933802 25.980989,9.70675967 25.980989,8.77125595 C25.980989,7.83575224 25.980989,5.79828358 25.980989,4.98181566 C25.980989,4.16534774 24.9706228,4.18811429 24.9706228,4.98181566 C24.9706228,5.77551703 24.9706228,7.86035899 24.9706228,8.8148485 Z" id="b"></path>
                <path d="M14,-1.42108547e-14 C15.1181066,-1.3976991e-14 16.2847733,-1.3976991e-14 17.5,-1.42108547e-14 C19.3228401,-1.42108547e-14 21,0.356714582 21,3.08195272 C21,5.80719085 21,5.5 21,7.87299527 C21,10.2459905 20.2603607,11 18.528375,11 C17.3737179,11 15.8642595,11 14,11 L14,-1.42108547e-14 Z M17.0467877,9.07789601 C17.7037319,9.19947318 18.0322039,8.66862181 18.0322039,7.48534187 C18.0322039,5.71042197 18.0322039,4.89684081 18.0322039,3.34720214 C18.0322039,2.31410969 17.7037319,1.83306488 17.0467877,1.90406769 L17.0467877,9.07789601 Z" id="D"></path>
                <polygon id="M" points="4 0 4 11 6.46365025 11 6.46365025 3.93249201 7.58273212 11 9.42520121 11 10.4392901 3.93249201 10.4392901 11 13 11 13 0 9.23517753 0 8.5 4.94014753 7.84661828 0"></polygon>
                <polygon id="I" points="7.10542736e-15 0 8.10462808e-15 11 3 11 3 0"></polygon>
            </g>
        </g>
    </g>
</svg>